<svg xmlns="http://www.w3.org/2000/svg" width="512" height="512" viewBox="0 0 512 512" version="1.1"><path d="M 23.500 66.875 C 21.300 67.886, 18.217 70.010, 16.649 71.594 C 15.082 73.178, 12.832 76.280, 11.649 78.487 L 9.500 82.500 9.500 244.500 C 9.500 393.703, 9.632 406.776, 11.168 410 C 12.805 413.434, 12.838 413.198, 12.918 397.471 L 13 381.442 19.277 375.221 C 24.262 370.280, 26.192 369, 28.654 369 C 30.360 369, 32.315 368.325, 33 367.500 C 33.973 366.328, 36.729 366, 45.622 366 L 57 366 57 240 L 57 114 257.500 114 L 458 114 458 240 L 458 366 469.096 366 C 476.599 366, 481.051 366.448, 482.846 367.384 C 484.306 368.145, 487.300 369.601, 489.500 370.620 C 491.700 371.638, 494.962 373.804, 496.750 375.432 C 498.538 377.060, 500 379.149, 500 380.074 C 500 380.998, 500.682 382.321, 501.516 383.013 C 502.869 384.136, 503.003 368.114, 502.766 233.386 L 502.500 82.500 499.394 77 C 497.233 73.174, 494.822 70.587, 491.472 68.500 L 486.657 65.500 257.078 65.268 C 36.074 65.046, 27.351 65.106, 23.500 66.875 M 332 221.500 C 332 221.775, 332.225 222, 332.500 222 C 332.775 222, 333 221.775, 333 221.500 C 333 221.225, 332.775 221, 332.500 221 C 332.225 221, 332 221.225, 332 221.500 M 267 273.500 C 267 273.775, 267.225 274, 267.500 274 C 267.775 274, 268 273.775, 268 273.500 C 268 273.225, 267.775 273, 267.500 273 C 267.225 273, 267 273.225, 267 273.500 M 345 317.500 C 345 317.775, 345.225 318, 345.500 318 C 345.775 318, 346 317.775, 346 317.500 C 346 317.225, 345.775 317, 345.500 317 C 345.225 317, 345 317.225, 345 317.500" stroke="none" fill="#ef9a9a" fill-rule="evenodd"/><path d="M 285.500 397.618 C 284.400 397.871, 282.580 398.271, 281.456 398.506 C 280.332 398.742, 277.510 400.639, 275.185 402.723 C 271.798 405.758, 270.931 407.228, 270.822 410.117 C 270.726 412.661, 271.503 414.793, 273.462 417.361 C 274.988 419.363, 276.903 421, 277.718 421 C 278.532 421, 280.616 421.654, 282.349 422.453 C 284.082 423.253, 287.975 424.742, 291 425.763 C 295.793 427.381, 296.543 427.991, 296.836 430.511 C 297.057 432.418, 296.567 433.844, 295.395 434.701 C 294.417 435.415, 291.971 436, 289.958 436 C 287.945 436, 284.769 435.486, 282.899 434.858 C 281.030 434.231, 278.790 433.106, 277.921 432.358 C 277.053 431.611, 275.435 431, 274.326 431 C 273.217 431, 271.511 431.883, 270.534 432.963 C 269.557 434.042, 269.004 435.568, 269.305 436.353 C 269.607 437.139, 272.309 438.982, 275.310 440.451 C 278.311 441.919, 283.232 443.375, 286.246 443.686 C 289.977 444.071, 293.290 443.732, 296.625 442.625 C 299.319 441.730, 302.714 439.894, 304.169 438.544 C 305.624 437.195, 307.344 434.488, 307.990 432.529 C 308.994 429.487, 308.897 428.508, 307.320 425.808 C 306.196 423.884, 303.329 421.562, 299.987 419.870 C 296.969 418.342, 291.575 416.215, 288 415.143 C 282.732 413.564, 281.435 412.763, 281.157 410.921 C 280.934 409.440, 281.631 408.021, 283.157 406.846 C 284.446 405.855, 286.908 405.034, 288.628 405.022 C 290.348 405.010, 293.355 405.668, 295.309 406.485 C 297.264 407.302, 299.146 408.427, 299.491 408.985 C 299.836 409.543, 300.981 410, 302.036 410 C 303.091 410, 304.692 408.873, 305.595 407.495 C 306.994 405.360, 307.035 404.745, 305.868 403.332 C 305.116 402.421, 302.700 400.885, 300.500 399.920 C 298.300 398.955, 294.475 397.939, 292 397.662 C 289.525 397.385, 286.600 397.365, 285.500 397.618 M 350.749 398.375 C 348.137 399.099, 345.004 400.548, 343.787 401.596 C 342.571 402.643, 340.803 404.400, 339.859 405.500 C 338.915 406.600, 337.608 409.390, 336.955 411.699 C 336.303 414.009, 335.942 418.959, 336.154 422.699 C 336.397 426.972, 337.310 430.987, 338.611 433.500 C 339.858 435.909, 342.463 438.607, 345.163 440.284 C 347.628 441.815, 351.275 443.333, 353.267 443.656 C 355.259 443.979, 358.877 443.946, 361.307 443.581 C 363.737 443.217, 367.599 441.703, 369.890 440.218 C 372.356 438.619, 374.839 435.882, 375.976 433.509 C 377.033 431.304, 378.193 427.214, 378.555 424.420 C 378.925 421.562, 378.692 416.835, 378.023 413.610 C 377.234 409.810, 375.802 406.705, 373.772 404.393 C 372.088 402.475, 369.217 400.282, 367.393 399.520 C 365.569 398.758, 362.147 397.892, 359.788 397.596 C 357.430 397.301, 353.362 397.651, 350.749 398.375 M 449.636 398.453 C 448.060 399.304, 445.984 400, 445.021 400 C 444.058 400, 442.095 400.924, 440.659 402.054 C 439.223 403.183, 437.505 405.920, 436.841 408.136 C 435.803 411.600, 435.882 412.625, 437.401 415.445 C 438.372 417.250, 440.817 419.648, 442.834 420.775 C 444.850 421.903, 449.110 423.503, 452.301 424.331 C 455.491 425.159, 459.204 426.559, 460.551 427.441 C 461.898 428.324, 463 429.866, 463 430.868 C 463 431.870, 462.112 433.493, 461.028 434.475 C 459.509 435.850, 457.925 436.151, 454.136 435.787 C 451.430 435.527, 447.353 434.344, 445.077 433.157 C 442.801 431.971, 440.347 431, 439.624 431 C 438.901 431, 437.511 431.883, 436.534 432.963 C 435.557 434.042, 435.031 435.640, 435.366 436.512 C 435.701 437.385, 438.455 439.234, 441.485 440.622 C 444.515 442.009, 449.409 443.393, 452.360 443.698 C 456.028 444.076, 459.338 443.716, 462.817 442.561 C 465.997 441.505, 469.050 439.568, 470.953 437.400 C 473.119 434.934, 474 432.909, 474 430.399 C 474 428.457, 473.534 425.998, 472.965 424.934 C 472.396 423.871, 469.583 421.655, 466.715 420.010 C 463.442 418.132, 460.079 417.015, 457.683 417.009 C 455.117 417.003, 452.742 416.142, 450.433 414.381 C 448.545 412.941, 447 410.926, 447 409.904 C 447 408.882, 448.012 407.415, 449.250 406.643 C 450.488 405.871, 453.546 404.982, 456.048 404.667 C 460.151 404.150, 460.867 404.382, 463.382 407.047 C 464.915 408.671, 466.962 410, 467.930 410 C 468.898 410, 470.528 409.074, 471.553 407.941 C 472.947 406.401, 473.161 405.458, 472.401 404.191 C 471.842 403.261, 469.386 401.507, 466.943 400.294 C 464.499 399.080, 460.250 397.821, 457.500 397.497 C 453.953 397.078, 451.668 397.356, 449.636 398.453 M 43.426 399.300 C 42.265 399.951, 42 403.856, 42 420.350 C 42 434.767, 42.346 440.946, 43.200 441.800 C 44.028 442.628, 49.106 443, 59.578 443 C 71.565 443, 75.006 442.697, 75.950 441.560 C 76.607 440.769, 76.999 438.856, 76.822 437.310 L 76.500 434.500 65.538 434 L 54.576 433.500 53.870 430.032 C 53.481 428.124, 53.582 425.781, 54.094 424.825 C 54.820 423.468, 56.610 423.023, 62.262 422.794 C 69.238 422.511, 69.500 422.409, 69.500 420 C 69.500 417.602, 69.196 417.480, 62.067 417 C 54.872 416.516, 54.610 416.407, 53.863 413.598 C 53.434 411.984, 53.523 409.892, 54.063 408.882 C 54.893 407.332, 56.600 407.026, 65.767 406.784 L 76.500 406.500 76.828 403.628 C 77.009 402.049, 76.745 400.345, 76.242 399.842 C 75.739 399.339, 68.471 398.831, 60.090 398.714 C 51.709 398.596, 44.210 398.860, 43.426 399.300 M 85.750 398.806 C 84.787 398.994, 84 399.548, 84 400.038 C 84 400.528, 84.900 401.411, 86 402 C 87.100 402.589, 88 403.660, 88 404.380 C 88 405.101, 88.900 406.505, 90 407.500 C 91.100 408.495, 92 409.963, 92 410.761 C 92 411.558, 93.125 413.548, 94.500 415.182 C 96.101 417.085, 97 419.384, 97 421.577 C 97 423.460, 96.581 425, 96.069 425 C 95.557 425, 92.603 428.597, 89.505 432.993 C 86.407 437.388, 84.153 441.438, 84.495 441.993 C 84.838 442.547, 86.630 443, 88.477 443 C 90.325 443, 92.544 442.729, 93.409 442.397 C 94.273 442.065, 96.593 439.140, 98.563 435.897 C 100.829 432.167, 102.815 430, 103.968 430 C 105.078 430, 107.095 432.054, 109.123 435.250 C 110.955 438.137, 113.140 441.048, 113.977 441.718 C 114.815 442.388, 117.375 442.951, 119.667 442.968 C 122.134 442.987, 124.005 442.490, 124.254 441.750 C 124.486 441.063, 121.823 436.261, 118.338 431.079 C 114.852 425.898, 112 420.925, 112 420.029 C 112 419.133, 114.025 415.617, 116.500 412.216 C 118.975 408.814, 121 405.372, 121 404.565 C 121 403.759, 121.745 402.683, 122.654 402.173 C 123.620 401.633, 124.058 400.594, 123.707 399.678 C 123.245 398.476, 122.215 398.247, 119.302 398.701 C 116.791 399.092, 114.562 400.347, 112.738 402.396 C 111.218 404.103, 109.294 406.738, 108.462 408.250 C 107.630 409.762, 106.103 411, 105.069 411 C 103.916 411, 102.228 409.359, 100.699 406.749 C 99.328 404.411, 97.373 401.762, 96.354 400.863 C 95.334 399.964, 92.925 399.057, 91 398.848 C 89.075 398.638, 86.713 398.619, 85.750 398.806 M 148.750 398.748 L 131 399.046 131 401.663 C 131 403.102, 131.787 404.877, 132.750 405.608 C 133.713 406.339, 136.357 406.951, 138.628 406.968 C 140.898 406.986, 143.249 407.595, 143.852 408.322 C 144.522 409.129, 145.056 416.030, 145.224 426.072 L 145.500 442.500 149.320 442.815 C 151.421 442.988, 153.773 442.603, 154.548 441.960 C 155.669 441.030, 155.910 437.567, 155.728 424.980 C 155.603 416.284, 155.875 408.794, 156.332 408.335 C 156.790 407.876, 159.940 407.275, 163.332 407 C 169.209 406.524, 169.515 406.368, 169.822 403.690 C 169.999 402.144, 169.607 400.231, 168.950 399.440 C 168.293 398.648, 167.473 398.101, 167.128 398.225 C 166.782 398.349, 158.512 398.585, 148.750 398.748 M 179.007 398.833 C 178.373 399.043, 178 407.054, 178 420.476 C 178 438.985, 178.208 441.866, 179.582 442.393 C 180.452 442.727, 187.539 442.993, 195.332 442.985 C 203.124 442.976, 210.096 442.592, 210.824 442.130 C 211.621 441.625, 212.019 439.937, 211.824 437.895 L 211.500 434.500 200.500 434 L 189.500 433.500 189.500 428.500 L 189.500 423.500 197 423 C 204.265 422.516, 204.510 422.415, 204.812 419.793 L 205.125 417.086 197.312 416.793 L 189.500 416.500 189.500 412 L 189.500 407.500 200.500 407 L 211.500 406.500 211.828 403.628 C 212.009 402.049, 211.716 400.316, 211.178 399.778 C 210.640 399.240, 203.408 398.733, 195.107 398.650 C 186.806 398.568, 179.561 398.650, 179.007 398.833 M 222.750 398.729 C 221.151 399.111, 221 400.992, 221 420.554 L 221 441.962 223.500 442.589 C 224.875 442.934, 227.125 442.934, 228.500 442.589 C 230.984 441.966, 231 441.889, 231 430.540 C 231 424.258, 231.372 418.888, 231.826 418.607 C 232.281 418.326, 233.631 418.352, 234.826 418.665 C 236.033 418.980, 237 420.027, 237 421.016 C 237 421.997, 238.850 425.207, 241.110 428.150 C 243.371 431.092, 246.594 435.393, 248.272 437.706 C 250.156 440.303, 252.400 442.149, 254.139 442.531 C 255.688 442.871, 257.865 442.860, 258.978 442.507 C 260.924 441.889, 261 441.066, 261 420.549 C 261 400.027, 260.925 399.214, 258.987 398.707 C 257.879 398.417, 255.742 398.509, 254.237 398.910 L 251.500 399.640 251.214 410.556 C 251.056 416.560, 250.539 421.861, 250.064 422.336 C 249.590 422.810, 248.310 422.916, 247.220 422.570 C 246.124 422.222, 244.985 420.724, 244.673 419.220 C 244.362 417.724, 241.721 413.463, 238.804 409.752 C 235.887 406.040, 232.825 402.150, 232 401.106 C 231.175 400.063, 229.150 399.007, 227.500 398.760 C 225.850 398.513, 223.713 398.499, 222.750 398.729 M 318.223 399.577 C 316.713 400.680, 316.459 403.285, 316.171 420.623 C 315.872 438.627, 316.002 440.528, 317.612 441.706 C 318.586 442.418, 320.781 443, 322.491 443 C 324.201 443, 326.140 442.460, 326.800 441.800 C 327.653 440.947, 327.996 434.940, 327.985 421.050 C 327.976 410.298, 327.569 400.868, 327.080 400.095 C 326.591 399.322, 324.785 398.606, 323.069 398.504 C 321.352 398.402, 319.171 398.885, 318.223 399.577 M 388.750 398.806 C 387.788 398.994, 386.984 399.676, 386.965 400.323 C 386.945 400.970, 386.917 410.456, 386.902 421.402 C 386.881 436.766, 387.174 441.494, 388.187 442.137 C 388.909 442.595, 390.647 442.976, 392.050 442.985 C 393.452 442.993, 395.140 442.460, 395.800 441.800 C 396.586 441.014, 397 436.851, 397 429.730 C 397 419.065, 397.042 418.867, 399.225 419.180 C 400.449 419.356, 401.930 420.467, 402.516 421.648 C 403.103 422.829, 406.697 427.907, 410.503 432.932 C 414.371 438.038, 418.389 442.310, 419.610 442.617 C 420.813 442.919, 422.855 443.016, 424.148 442.833 L 426.500 442.500 426.770 420.750 L 427.039 399 422.020 399 L 417 399 417 410.441 C 417 416.734, 416.567 422.150, 416.038 422.477 C 415.509 422.804, 413.259 421.308, 411.038 419.153 C 408.817 416.997, 407 414.724, 407 414.102 C 407 413.479, 404.750 409.875, 401.999 406.094 C 397.858 400.400, 396.440 399.154, 393.749 398.842 C 391.962 398.636, 389.712 398.619, 388.750 398.806 M 350.455 408.455 C 348.200 410.710, 348 411.667, 348 420.232 C 348 426.909, 348.427 430.164, 349.503 431.701 C 350.330 432.881, 352.582 434.367, 354.509 435.003 C 357.457 435.976, 358.605 435.869, 361.756 434.330 C 364.676 432.903, 365.704 431.674, 366.426 428.750 C 366.936 426.688, 367.723 425, 368.176 425 C 368.629 425, 369 422.781, 369 420.069 C 369 416.656, 368.308 414.066, 366.750 411.652 C 365.512 409.735, 363.466 407.678, 362.203 407.083 C 360.940 406.487, 358.332 406, 356.407 406 C 354.026 406, 352.125 406.784, 350.455 408.455" stroke="none" fill="#253137" fill-rule="evenodd"/><path d="M 84.246 244.250 L 84.500 361.500 137.250 361.759 L 190 362.018 190 338.009 L 190 314 167.500 314 L 145 314 145 289.022 L 145 264.043 164.250 263.772 L 183.500 263.500 183.769 240.750 L 184.038 218 164.519 218 L 145 218 145 197 L 145 176 165.500 176 L 186 176 186 151.500 L 186 127 134.996 127 L 83.992 127 84.246 244.250 M 232.546 129.250 C 232.332 129.938, 225.809 181.800, 218.052 244.500 C 210.294 307.200, 203.726 359.512, 203.455 360.750 L 202.962 363 233.481 363 L 264 363 264 360.700 C 264 359.435, 264.449 352.347, 264.998 344.950 C 265.546 337.552, 266.254 329.137, 266.570 326.250 L 267.144 321 277.572 321 C 285.233 321, 288.008 321.332, 288.028 322.250 C 288.044 322.938, 288.709 331.600, 289.507 341.500 C 290.305 351.400, 290.967 360.288, 290.979 361.250 C 290.998 362.877, 293.103 363, 321 363 L 351 363 351 360.605 C 351 359.287, 344.025 306.684, 335.500 243.709 C 326.975 180.734, 320 128.937, 320 128.604 C 320 128.272, 300.411 128, 276.469 128 C 242.519 128, 232.851 128.275, 232.546 129.250 M 371 245.500 L 371 363 401 363 L 431 363 431 245.500 L 431 128 401 128 L 371 128 371 245.500 M 276.744 178 C 276.389 179.375, 274.256 200.525, 272.003 225 C 269.750 249.475, 267.641 271.863, 267.316 274.750 L 266.725 280 276.862 280 C 286.429 280, 287 279.884, 287 277.941 C 287 276.809, 284.979 254.422, 282.509 228.191 C 280.039 201.961, 277.877 179.375, 277.703 178 L 277.389 175.500 276.744 178" stroke="none" fill="#ffffff" fill-rule="evenodd"/><path d="M 57 240 L 57 366 45.622 366 C 36.729 366, 33.973 366.328, 33 367.500 C 32.315 368.325, 30.335 369, 28.599 369 C 26.053 369, 24.239 370.214, 19.221 375.277 L 13 381.554 12.985 397.527 C 12.974 408.209, 12.648 413.003, 12 412 C 11.359 411.008, 11.025 418.503, 11.015 434.128 C 11.002 453.923, 11.243 457.957, 12.500 459 C 13.325 459.685, 14 460.998, 14 461.919 C 14 462.841, 15.706 465.260, 17.792 467.297 C 19.878 469.334, 22.326 471, 23.233 471 C 24.140 471, 25.160 471.450, 25.500 472 C 25.909 472.662, 103.991 473, 256.500 473 C 409.009 473, 487.091 472.662, 487.500 472 C 487.840 471.450, 488.894 471, 489.843 471 C 490.792 471, 493.915 468.623, 496.784 465.719 C 499.653 462.814, 502 459.690, 502 458.778 C 502 457.865, 502.450 456.840, 503 456.500 C 503.640 456.104, 503.972 442.493, 503.921 418.691 C 503.878 398.236, 503.609 382.081, 503.324 382.792 C 502.926 383.784, 502.480 383.813, 501.403 382.919 C 500.631 382.279, 500 380.998, 500 380.074 C 500 379.149, 498.538 377.060, 496.750 375.432 C 494.963 373.804, 491.700 371.638, 489.500 370.620 C 487.300 369.601, 484.306 368.145, 482.846 367.384 C 481.051 366.448, 476.599 366, 469.096 366 L 458 366 458 240 L 458 114 257.500 114 L 57 114 57 240 M 84.246 244.250 L 84.500 361.500 137.250 361.759 L 190 362.018 190 338.009 L 190 314 167.500 314 L 145 314 145 289.022 L 145 264.043 164.250 263.772 L 183.500 263.500 183.769 240.750 L 184.038 218 164.519 218 L 145 218 145 197 L 145 176 165.500 176 L 186 176 186 151.500 L 186 127 134.996 127 L 83.992 127 84.246 244.250 M 232.546 129.250 C 232.332 129.938, 225.809 181.800, 218.052 244.500 C 210.294 307.200, 203.726 359.512, 203.455 360.750 L 202.962 363 233.481 363 L 264 363 264.028 360.250 C 264.044 358.738, 264.709 349.400, 265.507 339.500 C 266.305 329.600, 266.967 321.387, 266.979 321.250 C 266.990 321.113, 271.725 321, 277.500 321 C 285.222 321, 288.006 321.331, 288.021 322.250 C 288.033 322.938, 288.695 331.600, 289.493 341.500 C 290.291 351.400, 290.956 360.288, 290.972 361.250 C 290.998 362.877, 293.106 363, 321 363 L 351 363 351 360.488 C 351 359.107, 344.025 306.513, 335.500 243.612 C 326.975 180.712, 320 128.967, 320 128.624 C 320 128.281, 300.411 128, 276.469 128 C 242.519 128, 232.851 128.275, 232.546 129.250 M 371 245.500 L 371 363 401 363 L 431 363 431 245.500 L 431 128 401 128 L 371 128 371 245.500 M 276.748 178 C 276.395 179.375, 274.276 200.525, 272.039 225 C 269.802 249.475, 267.702 271.863, 267.371 274.750 L 266.770 280 276.885 280 C 286.339 280, 287 279.869, 287 277.996 C 287 276.894, 284.978 254.507, 282.507 228.246 C 280.035 201.986, 277.873 179.375, 277.701 178 L 277.389 175.500 276.748 178 M 285.500 397.618 C 284.400 397.871, 282.580 398.271, 281.456 398.506 C 280.332 398.742, 277.510 400.639, 275.185 402.723 C 271.798 405.758, 270.931 407.228, 270.822 410.117 C 270.726 412.661, 271.503 414.793, 273.462 417.361 C 274.988 419.363, 276.903 421, 277.718 421 C 278.532 421, 280.616 421.654, 282.349 422.453 C 284.082 423.253, 287.975 424.742, 291 425.763 C 295.793 427.381, 296.543 427.991, 296.836 430.511 C 297.057 432.418, 296.567 433.844, 295.395 434.701 C 294.417 435.415, 291.971 436, 289.958 436 C 287.945 436, 284.769 435.486, 282.899 434.858 C 281.030 434.231, 278.790 433.106, 277.921 432.358 C 277.053 431.611, 275.435 431, 274.326 431 C 273.217 431, 271.511 431.883, 270.534 432.963 C 269.557 434.042, 269.004 435.568, 269.305 436.353 C 269.607 437.139, 272.309 438.982, 275.310 440.451 C 278.311 441.919, 283.232 443.375, 286.246 443.686 C 289.977 444.071, 293.290 443.732, 296.625 442.625 C 299.319 441.730, 302.714 439.894, 304.169 438.544 C 305.624 437.195, 307.344 434.488, 307.990 432.529 C 308.994 429.487, 308.897 428.508, 307.320 425.808 C 306.196 423.884, 303.329 421.562, 299.987 419.870 C 296.969 418.342, 291.575 416.215, 288 415.143 C 282.732 413.564, 281.435 412.763, 281.157 410.921 C 280.934 409.440, 281.631 408.021, 283.157 406.846 C 284.446 405.855, 286.908 405.034, 288.628 405.022 C 290.348 405.010, 293.355 405.668, 295.309 406.485 C 297.264 407.302, 299.146 408.427, 299.491 408.985 C 299.836 409.543, 300.981 410, 302.036 410 C 303.091 410, 304.692 408.873, 305.595 407.495 C 306.994 405.360, 307.035 404.745, 305.868 403.332 C 305.116 402.421, 302.700 400.885, 300.500 399.920 C 298.300 398.955, 294.475 397.939, 292 397.662 C 289.525 397.385, 286.600 397.365, 285.500 397.618 M 350.749 398.375 C 348.137 399.099, 345.004 400.548, 343.787 401.596 C 342.571 402.643, 340.803 404.400, 339.859 405.500 C 338.915 406.600, 337.608 409.390, 336.955 411.699 C 336.303 414.009, 335.942 418.959, 336.154 422.699 C 336.397 426.972, 337.310 430.987, 338.611 433.500 C 339.858 435.909, 342.463 438.607, 345.163 440.284 C 347.628 441.815, 351.275 443.333, 353.267 443.656 C 355.259 443.979, 358.877 443.946, 361.307 443.581 C 363.737 443.217, 367.599 441.703, 369.890 440.218 C 372.356 438.619, 374.839 435.882, 375.976 433.509 C 377.033 431.304, 378.193 427.214, 378.555 424.420 C 378.925 421.562, 378.692 416.835, 378.023 413.610 C 377.234 409.810, 375.802 406.705, 373.772 404.393 C 372.088 402.475, 369.217 400.282, 367.393 399.520 C 365.569 398.758, 362.147 397.892, 359.788 397.596 C 357.430 397.301, 353.362 397.651, 350.749 398.375 M 449.636 398.453 C 448.060 399.304, 445.984 400, 445.021 400 C 444.058 400, 442.095 400.924, 440.659 402.054 C 439.223 403.183, 437.505 405.920, 436.841 408.136 C 435.803 411.600, 435.882 412.625, 437.401 415.445 C 438.372 417.250, 440.817 419.648, 442.834 420.775 C 444.850 421.903, 449.110 423.503, 452.301 424.331 C 455.491 425.159, 459.204 426.559, 460.551 427.441 C 461.898 428.324, 463 429.866, 463 430.868 C 463 431.870, 462.112 433.493, 461.028 434.475 C 459.509 435.850, 457.925 436.151, 454.136 435.787 C 451.430 435.527, 447.353 434.344, 445.077 433.157 C 442.801 431.971, 440.347 431, 439.624 431 C 438.901 431, 437.511 431.883, 436.534 432.963 C 435.557 434.042, 435.031 435.640, 435.366 436.512 C 435.701 437.385, 438.455 439.234, 441.485 440.622 C 444.515 442.009, 449.409 443.393, 452.360 443.698 C 456.028 444.076, 459.338 443.716, 462.817 442.561 C 465.997 441.505, 469.050 439.568, 470.953 437.400 C 473.119 434.934, 474 432.909, 474 430.399 C 474 428.457, 473.534 425.998, 472.965 424.934 C 472.396 423.871, 469.583 421.655, 466.715 420.010 C 463.442 418.132, 460.079 417.015, 457.683 417.009 C 455.117 417.003, 452.742 416.142, 450.433 414.381 C 448.545 412.941, 447 410.926, 447 409.904 C 447 408.882, 448.012 407.415, 449.250 406.643 C 450.488 405.871, 453.546 404.982, 456.048 404.667 C 460.151 404.150, 460.867 404.382, 463.382 407.047 C 464.915 408.671, 466.962 410, 467.930 410 C 468.898 410, 470.528 409.074, 471.553 407.941 C 472.947 406.401, 473.161 405.458, 472.401 404.191 C 471.842 403.261, 469.386 401.507, 466.943 400.294 C 464.499 399.080, 460.250 397.821, 457.500 397.497 C 453.953 397.078, 451.668 397.356, 449.636 398.453 M 43.426 399.300 C 42.265 399.951, 42 403.856, 42 420.350 C 42 434.767, 42.346 440.946, 43.200 441.800 C 44.028 442.628, 49.106 443, 59.578 443 C 71.565 443, 75.006 442.697, 75.950 441.560 C 76.607 440.769, 76.999 438.856, 76.822 437.310 L 76.500 434.500 65.538 434 L 54.576 433.500 53.870 430.032 C 53.481 428.124, 53.582 425.781, 54.094 424.825 C 54.820 423.468, 56.610 423.023, 62.262 422.794 C 69.238 422.511, 69.500 422.409, 69.500 420 C 69.500 417.602, 69.196 417.480, 62.067 417 C 54.872 416.516, 54.610 416.407, 53.863 413.598 C 53.434 411.984, 53.523 409.892, 54.063 408.882 C 54.893 407.332, 56.600 407.026, 65.767 406.784 L 76.500 406.500 76.828 403.628 C 77.009 402.049, 76.745 400.345, 76.242 399.842 C 75.739 399.339, 68.471 398.831, 60.090 398.714 C 51.709 398.596, 44.210 398.860, 43.426 399.300 M 85.750 398.806 C 84.787 398.994, 84 399.548, 84 400.038 C 84 400.528, 84.900 401.411, 86 402 C 87.100 402.589, 88 403.660, 88 404.380 C 88 405.101, 88.900 406.505, 90 407.500 C 91.100 408.495, 92 409.963, 92 410.761 C 92 411.558, 93.125 413.548, 94.500 415.182 C 96.101 417.085, 97 419.384, 97 421.577 C 97 423.460, 96.581 425, 96.069 425 C 95.557 425, 92.603 428.597, 89.505 432.993 C 86.407 437.388, 84.153 441.438, 84.495 441.993 C 84.838 442.547, 86.630 443, 88.477 443 C 90.325 443, 92.544 442.729, 93.409 442.397 C 94.273 442.065, 96.593 439.140, 98.563 435.897 C 100.829 432.167, 102.815 430, 103.968 430 C 105.078 430, 107.095 432.054, 109.123 435.250 C 110.955 438.137, 113.140 441.048, 113.977 441.718 C 114.815 442.388, 117.375 442.951, 119.667 442.968 C 122.134 442.987, 124.005 442.490, 124.254 441.750 C 124.486 441.063, 121.823 436.261, 118.338 431.079 C 114.852 425.898, 112 420.925, 112 420.029 C 112 419.133, 114.025 415.617, 116.500 412.216 C 118.975 408.814, 121 405.372, 121 404.565 C 121 403.759, 121.745 402.683, 122.654 402.173 C 123.620 401.633, 124.058 400.594, 123.707 399.678 C 123.245 398.476, 122.215 398.247, 119.302 398.701 C 116.791 399.092, 114.562 400.347, 112.738 402.396 C 111.218 404.103, 109.294 406.738, 108.462 408.250 C 107.630 409.762, 106.103 411, 105.069 411 C 103.916 411, 102.228 409.359, 100.699 406.749 C 99.328 404.411, 97.373 401.762, 96.354 400.863 C 95.334 399.964, 92.925 399.057, 91 398.848 C 89.075 398.638, 86.713 398.619, 85.750 398.806 M 148.750 398.748 L 131 399.046 131 401.663 C 131 403.102, 131.787 404.877, 132.750 405.608 C 133.713 406.339, 136.357 406.951, 138.628 406.968 C 140.898 406.986, 143.249 407.595, 143.852 408.322 C 144.522 409.129, 145.056 416.030, 145.224 426.072 L 145.500 442.500 149.320 442.815 C 151.421 442.988, 153.773 442.603, 154.548 441.960 C 155.669 441.030, 155.910 437.567, 155.728 424.980 C 155.603 416.284, 155.875 408.794, 156.332 408.335 C 156.790 407.876, 159.940 407.275, 163.332 407 C 169.209 406.524, 169.515 406.368, 169.822 403.690 C 169.999 402.144, 169.607 400.231, 168.950 399.440 C 168.293 398.648, 167.473 398.101, 167.128 398.225 C 166.782 398.349, 158.512 398.585, 148.750 398.748 M 179.007 398.833 C 178.373 399.043, 178 407.054, 178 420.476 C 178 438.985, 178.208 441.866, 179.582 442.393 C 180.452 442.727, 187.539 442.993, 195.332 442.985 C 203.124 442.976, 210.096 442.592, 210.824 442.130 C 211.621 441.625, 212.019 439.937, 211.824 437.895 L 211.500 434.500 200.500 434 L 189.500 433.500 189.500 428.500 L 189.500 423.500 197 423 C 204.265 422.516, 204.510 422.415, 204.812 419.793 L 205.125 417.086 197.312 416.793 L 189.500 416.500 189.500 412 L 189.500 407.500 200.500 407 L 211.500 406.500 211.828 403.628 C 212.009 402.049, 211.716 400.316, 211.178 399.778 C 210.640 399.240, 203.408 398.733, 195.107 398.650 C 186.806 398.568, 179.561 398.650, 179.007 398.833 M 222.750 398.729 C 221.151 399.111, 221 400.992, 221 420.554 L 221 441.962 223.500 442.589 C 224.875 442.934, 227.125 442.934, 228.500 442.589 C 230.984 441.966, 231 441.889, 231 430.540 C 231 424.258, 231.372 418.888, 231.826 418.607 C 232.281 418.326, 233.631 418.352, 234.826 418.665 C 236.033 418.980, 237 420.027, 237 421.016 C 237 421.997, 238.850 425.207, 241.110 428.150 C 243.371 431.092, 246.594 435.393, 248.272 437.706 C 250.156 440.303, 252.400 442.149, 254.139 442.531 C 255.688 442.871, 257.865 442.860, 258.978 442.507 C 260.924 441.889, 261 441.066, 261 420.549 C 261 400.027, 260.925 399.214, 258.987 398.707 C 257.879 398.417, 255.742 398.509, 254.237 398.910 L 251.500 399.640 251.214 410.556 C 251.056 416.560, 250.539 421.861, 250.064 422.336 C 249.590 422.810, 248.310 422.916, 247.220 422.570 C 246.124 422.222, 244.985 420.724, 244.673 419.220 C 244.362 417.724, 241.721 413.463, 238.804 409.752 C 235.887 406.040, 232.825 402.150, 232 401.106 C 231.175 400.063, 229.150 399.007, 227.500 398.760 C 225.850 398.513, 223.713 398.499, 222.750 398.729 M 318.223 399.577 C 316.713 400.680, 316.459 403.285, 316.171 420.623 C 315.872 438.627, 316.002 440.528, 317.612 441.706 C 318.586 442.418, 320.781 443, 322.491 443 C 324.201 443, 326.140 442.460, 326.800 441.800 C 327.653 440.947, 327.996 434.940, 327.985 421.050 C 327.976 410.298, 327.569 400.868, 327.080 400.095 C 326.591 399.322, 324.785 398.606, 323.069 398.504 C 321.352 398.402, 319.171 398.885, 318.223 399.577 M 388.750 398.806 C 387.788 398.994, 386.984 399.676, 386.965 400.323 C 386.945 400.970, 386.917 410.456, 386.902 421.402 C 386.881 436.766, 387.174 441.494, 388.187 442.137 C 388.909 442.595, 390.647 442.976, 392.050 442.985 C 393.452 442.993, 395.140 442.460, 395.800 441.800 C 396.586 441.014, 397 436.851, 397 429.730 C 397 419.065, 397.042 418.867, 399.225 419.180 C 400.449 419.356, 401.930 420.467, 402.516 421.648 C 403.103 422.829, 406.697 427.907, 410.503 432.932 C 414.371 438.038, 418.389 442.310, 419.610 442.617 C 420.813 442.919, 422.855 443.016, 424.148 442.833 L 426.500 442.500 426.770 420.750 L 427.039 399 422.020 399 L 417 399 417 410.441 C 417 416.734, 416.567 422.150, 416.038 422.477 C 415.509 422.804, 413.259 421.308, 411.038 419.153 C 408.817 416.997, 407 414.724, 407 414.102 C 407 413.479, 404.750 409.875, 401.999 406.094 C 397.858 400.400, 396.440 399.154, 393.749 398.842 C 391.962 398.636, 389.712 398.619, 388.750 398.806 M 350.455 408.455 C 348.200 410.710, 348 411.667, 348 420.232 C 348 426.909, 348.427 430.164, 349.503 431.701 C 350.330 432.881, 352.582 434.367, 354.509 435.003 C 357.457 435.976, 358.605 435.869, 361.756 434.330 C 364.676 432.903, 365.704 431.674, 366.426 428.750 C 366.936 426.688, 367.723 425, 368.176 425 C 368.629 425, 369 422.781, 369 420.069 C 369 416.656, 368.308 414.066, 366.750 411.652 C 365.512 409.735, 363.466 407.678, 362.203 407.083 C 360.940 406.487, 358.332 406, 356.407 406 C 354.026 406, 352.125 406.784, 350.455 408.455" stroke="none" fill="#6b6c6d" fill-rule="evenodd"/></svg>